<?xml version="1.0" standalone="no"?>
<!DOCTYPE svg PUBLIC "-//W3C//DTD SVG 20010904//EN"
 "http://www.w3.org/TR/2001/REC-SVG-20010904/DTD/svg10.dtd">
<svg version="1.0" xmlns="http://www.w3.org/2000/svg"
 width="160.000000pt" height="78.000000pt" viewBox="0 0 160.000000 78.000000"
 preserveAspectRatio="xMidYMid meet">

<g transform="translate(0.000000,78.000000) scale(0.100000,-0.100000)"
fill="#000000" stroke="none">
<path d="M1060 626 c-14 -18 -6 -50 13 -44 15 6 22 37 10 49 -6 6 -15 4 -23
-5z"/>
<path d="M1036 480 l-18 -80 -191 -3 -192 -2 198 -3 197 -2 0 -45 0 -44 -62
-4 -63 -3 66 -2 67 -2 5 33 c2 17 0 42 -4 55 -6 16 -4 45 6 85 23 93 24 97 16
97 -5 0 -16 -36 -25 -80z"/>
<path d="M948 513 c7 -3 16 -2 19 1 4 3 -2 6 -13 5 -11 0 -14 -3 -6 -6z"/>
<path d="M290 476 c0 -2 9 -6 20 -9 11 -3 18 -1 14 4 -5 9 -34 13 -34 5z"/>
<path d="M567 398 c43 -100 48 -107 51 -65 4 52 -44 147 -74 147 -8 0 -1 -28
23 -82z"/>
<path d="M1097 463 c-3 -10 -13 -54 -22 -98 -8 -44 -17 -88 -19 -97 -2 -10 -1
-18 4 -18 8 0 54 219 47 227 -3 2 -7 -4 -10 -14z"/>
<path d="M406 443 c-6 -14 -5 -15 5 -6 7 7 10 15 7 18 -3 3 -9 -2 -12 -12z"/>
<path d="M455 441 c-16 -9 -47 -26 -68 -39 -21 -12 -51 -22 -67 -22 -25 0 -40
-15 -40 -39 0 -5 23 -11 52 -14 49 -6 92 -27 55 -27 -9 0 -17 -4 -17 -10 0 -5
8 -10 18 -10 12 0 28 -21 50 -65 l32 -65 60 31 c48 25 60 36 60 56 0 19 -22
76 -36 92 -2 2 -19 -6 -39 -18 -46 -27 -49 -26 -63 4 -19 41 -14 53 28 75 34
17 38 23 31 42 -10 28 -19 29 -56 9z"/>
<path d="M1375 430 c-3 -5 -1 -10 4 -10 6 0 11 5 11 10 0 6 -2 10 -4 10 -3 0
-8 -4 -11 -10z"/>
<path d="M182 358 c-2 -51 -5 -58 -22 -58 -15 0 -20 7 -20 28 0 16 -7 37 -15
48 -14 18 -14 17 -5 -9 18 -50 13 -65 -22 -70 l-33 -4 33 -1 c34 -2 39 -11 21
-44 -9 -17 -13 -18 -20 -7 -6 10 -9 11 -9 1 0 -12 34 -46 48 -48 4 0 15 -4 25
-9 10 -4 31 -2 48 6 29 12 31 15 26 55 -2 24 -1 41 4 38 5 -3 9 0 9 5 0 6 -5
11 -11 11 -11 0 -9 36 5 75 8 20 7 20 -8 1 -9 -11 -16 -32 -16 -48 0 -18 -5
-28 -15 -28 -10 0 -15 16 -18 58 l-3 57 -2 -57z m-2 -87 c0 -35 -10 -49 -31
-44 -13 4 -18 11 -15 20 3 8 6 21 6 29 0 8 9 14 20 14 13 0 20 -7 20 -19z m40
-1 c0 -11 -5 -20 -11 -20 -5 0 -7 -5 -3 -12 4 -7 3 -8 -4 -4 -18 11 -15 56 3
56 8 0 15 -9 15 -20z m-4 -62 c4 -6 3 -8 -4 -4 -5 3 -13 0 -15 -6 -3 -8 -6 -6
-6 5 -1 19 14 23 25 5z"/>
<path d="M1366 395 c-3 -8 -1 -15 4 -15 6 0 10 7 10 15 0 8 -2 15 -4 15 -2 0
-6 -7 -10 -15z"/>
<path d="M1316 355 c-11 -8 -15 -15 -9 -15 6 0 16 7 23 15 16 19 11 19 -14 0z"/>
<path d="M1293 323 c-72 -4 -89 -22 -80 -80 8 -50 23 -63 72 -63 55 0 76 28
74 100 -1 27 -3 49 -3 48 -1 -1 -29 -3 -63 -5z"/>
<path d="M280 300 c0 -5 7 -10 15 -10 8 0 15 5 15 10 0 6 -7 10 -15 10 -8 0
-15 -4 -15 -10z"/>
<path d="M327 304 c-8 -8 1 -24 14 -24 5 0 9 7 9 15 0 15 -12 20 -23 9z"/>
<path d="M280 261 c0 -6 5 -13 10 -16 6 -3 10 1 10 9 0 9 -4 16 -10 16 -5 0
-10 -4 -10 -9z"/>
<path d="M320 250 c0 -5 7 -10 15 -10 8 0 15 5 15 10 0 6 -7 10 -15 10 -8 0
-15 -4 -15 -10z"/>
<path d="M369 240 c-1 -11 -2 -25 -3 -32 -1 -6 5 -13 12 -15 8 -3 12 7 12 31
0 37 -19 51 -21 16z"/>
<path d="M270 215 c0 -8 7 -15 15 -15 8 0 15 7 15 15 0 8 -7 15 -15 15 -8 0
-15 -7 -15 -15z"/>
<path d="M1022 213 c5 -26 38 -29 38 -4 0 15 -6 21 -21 21 -14 0 -19 -5 -17
-17z"/>
<path d="M320 210 c0 -5 7 -10 15 -10 8 0 15 5 15 10 0 6 -7 10 -15 10 -8 0
-15 -4 -15 -10z"/>
<path d="M1072 193 c4 -22 38 -30 38 -10 0 8 -7 18 -16 21 -23 9 -26 8 -22
-11z"/>
</g>
</svg>
